<svg width="1440" height="630" viewBox="0 0 1440 630" fill="none" xmlns="http://www.w3.org/2000/svg">
<g clip-path="url(#clip0)">
<path d="M785 316C792.18 316 798 321.82 798 329C798 336.18 792.18 342 785 342C777.82 342 772 336.18 772 329C772 321.82 777.82 316 785 316Z" stroke="#99FF66" stroke-opacity="0.8" stroke-width="2"/>
<path d="M785 316C792.18 316 798 321.82 798 329C798 336.18 792.18 342 785 342C777.82 342 772 336.18 772 329C772 321.82 777.82 316 785 316Z" stroke="#99FF66" stroke-opacity="0.8" stroke-width="2"/>
<path d="M785 316C792.18 316 798 321.82 798 329C798 336.18 792.18 342 785 342C777.82 342 772 336.18 772 329C772 321.82 777.82 316 785 316Z" stroke="#99FF66" stroke-opacity="0.8" stroke-width="2"/>
<path d="M813 397C820.18 397 826 402.82 826 410C826 417.18 820.18 423 813 423C805.82 423 800 417.18 800 410C800 402.82 805.82 397 813 397Z" stroke="#99FF66" stroke-opacity="0.8" stroke-width="2"/>
<path d="M813 397C820.18 397 826 402.82 826 410C826 417.18 820.18 423 813 423C805.82 423 800 417.18 800 410C800 402.82 805.82 397 813 397Z" stroke="#99FF66" stroke-opacity="0.8" stroke-width="2"/>
<path d="M813 397C820.18 397 826 402.82 826 410C826 417.18 820.18 423 813 423C805.82 423 800 417.18 800 410C800 402.82 805.82 397 813 397Z" stroke="#99FF66" stroke-opacity="0.8" stroke-width="2"/>
<path d="M813 397C820.18 397 826 402.82 826 410C826 417.18 820.18 423 813 423C805.82 423 800 417.18 800 410C800 402.82 805.82 397 813 397Z" stroke="#99FF66" stroke-opacity="0.8" stroke-width="2"/>
<path opacity="0.5" d="M701 29C708.18 29 714 34.8203 714 42C714 49.1797 708.18 55 701 55C693.82 55 688 49.1797 688 42C688 34.8203 693.82 29 701 29Z" stroke="#99FF66" stroke-opacity="0.8" stroke-width="2"/>
<path opacity="0.5" d="M701 29C708.18 29 714 34.8203 714 42C714 49.1797 708.18 55 701 55C693.82 55 688 49.1797 688 42C688 34.8203 693.82 29 701 29Z" stroke="#99FF66" stroke-opacity="0.8" stroke-width="2"/>
<path opacity="0.5" d="M735 410C757.092 410 775 429.252 775 453C775 476.748 757.092 496 735 496C712.908 496 695 476.748 695 453C695 429.252 712.908 410 735 410Z" stroke="#99FF66" stroke-opacity="0.8" stroke-width="2"/>
<path opacity="0.5" d="M874.474 193.936C876.388 190.621 875.252 186.381 871.936 184.466C868.621 182.552 864.381 183.688 862.466 187.004C860.552 190.32 861.688 194.559 865.004 196.474C868.32 198.388 872.559 197.252 874.474 193.936Z" stroke="#BE9647" stroke-width="4"/>
<path opacity="0.5" d="M767.474 195.936C769.388 192.621 768.252 188.381 764.936 186.466C761.621 184.552 757.381 185.688 755.466 189.004C753.552 192.32 754.688 196.56 758.004 198.474C761.32 200.388 765.56 199.252 767.474 195.936Z" stroke="#BE9647" stroke-width="4"/>
<path opacity="0.5" d="M721.474 578.936C723.388 575.621 722.252 571.381 718.936 569.466C715.621 567.552 711.381 568.688 709.466 572.004C707.552 575.32 708.688 579.559 712.004 581.474C715.32 583.388 719.56 582.252 721.474 578.936Z" stroke="#0000FF" stroke-width="4"/>
<path opacity="0.5" d="M235.868 190.527C242.034 179.848 238.815 166.448 228.679 160.596C218.544 154.744 205.329 158.657 199.164 169.336C192.998 180.014 196.217 193.415 206.352 199.267C216.488 205.119 229.703 201.206 235.868 190.527Z" stroke="#0000FF" stroke-width="4"/>
<path opacity="0.5" d="M838.101 607.729C849.091 588.694 841.613 563.802 821.4 552.131C801.186 540.461 775.89 546.431 764.9 565.467C753.909 584.502 761.387 609.395 781.6 621.065C801.814 632.736 827.11 626.765 838.101 607.729Z" stroke="#0000FF" stroke-width="4"/>
<path opacity="0.5" d="M863.362 260.354C871.446 246.351 867.093 228.703 853.638 220.935C840.184 213.167 822.723 218.221 814.638 232.224C806.554 246.227 810.907 263.876 824.362 271.644C837.816 279.412 855.277 274.357 863.362 260.354Z" stroke="#0000FF" stroke-width="4"/>
<path opacity="0.5" d="M38.4738 562.936C40.3882 559.621 39.2522 555.381 35.9364 553.466C32.6206 551.552 28.3806 552.688 26.4662 556.004C24.5519 559.32 25.688 563.559 29.0038 565.474C32.3196 567.388 36.5595 566.252 38.4738 562.936Z" stroke="#BE9647" stroke-width="4"/>
<path opacity="0.5" d="M655.474 368.936C657.388 365.621 656.252 361.381 652.936 359.466C649.621 357.552 645.381 358.688 643.466 362.004C641.552 365.32 642.688 369.559 646.004 371.474C649.32 373.388 653.559 372.252 655.474 368.936Z" stroke="#008000" stroke-width="4"/>
<path opacity="0.5" d="M606.74 517.555C611.359 509.556 609.26 499.697 602.051 495.535C594.843 491.374 585.256 494.485 580.637 502.485C576.018 510.485 578.118 520.343 585.326 524.505C592.534 528.667 602.121 525.555 606.74 517.555Z" stroke="#008000" stroke-width="4"/>
<path opacity="0.5" d="M250.474 446.936C252.388 443.621 251.252 439.381 247.936 437.466C244.621 435.552 240.381 436.688 238.466 440.004C236.552 443.32 237.688 447.559 241.004 449.474C244.32 451.388 248.559 450.252 250.474 446.936Z" stroke="#FF0000" stroke-width="4"/>
<path opacity="0.5" d="M392.934 517.333C397.317 509.742 394.827 500.098 387.371 495.794C379.916 491.489 370.319 494.154 365.936 501.746C361.553 509.337 364.044 518.981 371.499 523.285C378.955 527.59 388.551 524.925 392.934 517.333Z" stroke="#FF0000" stroke-width="4"/>
<path opacity="0.5" d="M476.474 633.936C478.388 630.621 477.252 626.381 473.936 624.466C470.621 622.552 466.381 623.688 464.466 627.004C462.552 630.32 463.688 634.559 467.004 636.474C470.32 638.388 474.559 637.252 476.474 633.936Z" stroke="#FF0000" stroke-width="4"/>
<path opacity="0.5" d="M659 225C659 206.775 645.792 192 629.5 192C613.208 192 600 206.775 600 225C600 243.225 613.208 258 629.5 258C645.792 258 659 243.225 659 225Z" fill="#0000FF"/>
<path opacity="0.5" d="M939 354.5C939 347.596 933.404 342 926.5 342C919.596 342 914 347.596 914 354.5C914 361.404 919.596 367 926.5 367C933.404 367 939 361.404 939 354.5Z" fill="black"/>
<path opacity="0.5" d="M901 544C901 539.029 896.971 535 892 535C887.029 535 883 539.029 883 544C883 548.971 887.029 553 892 553C896.971 553 901 548.971 901 544Z" fill="#EBD8B1"/>
<path d="M999 396C1006.18 396 1012 401.82 1012 409C1012 416.18 1006.18 422 999 422C991.82 422 986 416.18 986 409C986 401.82 991.82 396 999 396Z" stroke="#99FF66" stroke-opacity="0.8" stroke-width="2"/>
<path opacity="0.5" d="M710 42C710 37.0294 705.971 33 701 33C696.029 33 692 37.0294 692 42C692 46.9706 696.029 51 701 51C705.971 51 710 46.9706 710 42Z" fill="#EBD8B1"/>
<path opacity="0.5" d="M485 363.5C485 353.835 478.06 346 469.5 346C460.94 346 454 353.835 454 363.5C454 373.165 460.94 381 469.5 381C478.06 381 485 373.165 485 363.5Z" fill="#FFA500"/>
<path opacity="0.5" d="M374 599.5C374 589.835 367.06 582 358.5 582C349.94 582 343 589.835 343 599.5C343 609.165 349.94 617 358.5 617C367.06 617 374 609.165 374 599.5Z" fill="#FFA500"/>
<path opacity="0.5" d="M363.5 600C369.299 600 374 604.701 374 610.5C374 616.299 369.299 621 363.5 621C357.701 621 353 616.299 353 610.5C353 604.701 357.701 600 363.5 600Z" stroke="#99FF66" stroke-opacity="0.8" stroke-width="4"/>
<path opacity="0.5" d="M701 29C708.18 29 714 34.8203 714 42C714 49.1797 708.18 55 701 55C693.82 55 688 49.1797 688 42C688 34.8203 693.82 29 701 29Z" stroke="#99FF66" stroke-opacity="0.8" stroke-width="2"/>
<path opacity="0.5" d="M358 217C358 212.029 353.971 208 349 208C344.029 208 340 212.029 340 217C340 221.971 344.029 226 349 226C353.971 226 358 221.971 358 217Z" fill="#800080"/>
<path opacity="0.5" d="M701 29C708.18 29 714 34.8203 714 42C714 49.1797 708.18 55 701 55C693.82 55 688 49.1797 688 42C688 34.8203 693.82 29 701 29Z" stroke="#99FF66" stroke-opacity="0.8" stroke-width="2"/>
<path d="M986 245C993.18 245 999 250.82 999 258C999 265.18 993.18 271 986 271C978.82 271 973 265.18 973 258C973 250.82 978.82 245 986 245Z" stroke="#FFFF00" stroke-opacity="0.8" stroke-width="2"/>
<path d="M986 245C993.18 245 999 250.82 999 258C999 265.18 993.18 271 986 271C978.82 271 973 265.18 973 258C973 250.82 978.82 245 986 245Z" stroke="#FFFF00" stroke-opacity="0.8" stroke-width="2"/>
<path d="M472 246C479.18 246 485 251.82 485 259C485 266.18 479.18 272 472 272C464.82 272 459 266.18 459 259C459 251.82 464.82 246 472 246Z" stroke="#99FF66" stroke-opacity="0.8" stroke-width="2"/>
<path opacity="0.5" d="M1052.47 334.936C1054.39 331.621 1053.25 327.381 1049.94 325.466C1046.62 323.552 1042.38 324.688 1040.47 328.004C1038.55 331.32 1039.69 335.56 1043 337.474C1046.32 339.388 1050.56 338.252 1052.47 334.936Z" stroke="#BE9647" stroke-width="4"/>
<path d="M91 355C98.18 355 104 360.82 104 368C104 375.18 98.18 381 91 381C83.82 381 78 375.18 78 368C78 360.82 83.82 355 91 355Z" stroke="#FF0000" stroke-opacity="0.8" stroke-width="2"/>
<path d="M37 245C44.18 245 50 250.82 50 258C50 265.18 44.18 271 37 271C29.82 271 24 265.18 24 258C24 250.82 29.82 245 37 245Z" stroke="#99FF66" stroke-opacity="0.8" stroke-width="2"/>
<path d="M37 245C44.18 245 50 250.82 50 258C50 265.18 44.18 271 37 271C29.82 271 24 265.18 24 258C24 250.82 29.82 245 37 245Z" stroke="#99FF66" stroke-opacity="0.8" stroke-width="2"/>
<path d="M37 245C44.18 245 50 250.82 50 258C50 265.18 44.18 271 37 271C29.82 271 24 265.18 24 258C24 250.82 29.82 245 37 245Z" stroke="#99FF66" stroke-opacity="0.8" stroke-width="2"/>
<path d="M1262 330C1269.18 330 1275 335.82 1275 343C1275 350.18 1269.18 356 1262 356C1254.82 356 1249 350.18 1249 343C1249 335.82 1254.82 330 1262 330Z" stroke="#99FF66" stroke-opacity="0.8" stroke-width="2"/>
<path d="M1262 330C1269.18 330 1275 335.82 1275 343C1275 350.18 1269.18 356 1262 356C1254.82 356 1249 350.18 1249 343C1249 335.82 1254.82 330 1262 330Z" stroke="#99FF66" stroke-opacity="0.8" stroke-width="2"/>
<path d="M1262 330C1269.18 330 1275 335.82 1275 343C1275 350.18 1269.18 356 1262 356C1254.82 356 1249 350.18 1249 343C1249 335.82 1254.82 330 1262 330Z" stroke="#99FF66" stroke-opacity="0.8" stroke-width="2"/>
<path d="M1262 330C1269.18 330 1275 335.82 1275 343C1275 350.18 1269.18 356 1262 356C1254.82 356 1249 350.18 1249 343C1249 335.82 1254.82 330 1262 330Z" stroke="#99FF66" stroke-opacity="0.8" stroke-width="2"/>
<path opacity="0.5" d="M1184 343C1206.09 343 1224 362.252 1224 386C1224 409.748 1206.09 429 1184 429C1161.91 429 1144 409.748 1144 386C1144 362.252 1161.91 343 1184 343Z" stroke="#99FF66" stroke-opacity="0.8" stroke-width="2"/>
<path opacity="0.5" d="M667 456C689.092 456 707 475.252 707 499C707 522.748 689.092 542 667 542C644.908 542 627 522.748 627 499C627 475.252 644.908 456 667 456Z" stroke="#008000" stroke-opacity="0.8" stroke-width="2"/>
<path opacity="0.5" d="M1216.47 128.936C1218.39 125.621 1217.25 121.381 1213.94 119.466C1210.62 117.552 1206.38 118.688 1204.47 122.004C1202.55 125.32 1203.69 129.56 1207 131.474C1210.32 133.388 1214.56 132.252 1216.47 128.936Z" stroke="#BE9647" stroke-width="4"/>
<path opacity="0.5" d="M1170.47 511.936C1172.39 508.621 1171.25 504.381 1167.94 502.466C1164.62 500.552 1160.38 501.688 1158.47 505.004C1156.55 508.32 1157.69 512.559 1161 514.474C1164.32 516.388 1168.56 515.252 1170.47 511.936Z" stroke="#0000FF" stroke-width="4"/>
<path opacity="0.5" d="M351.868 340.527C358.034 329.848 354.815 316.448 344.679 310.596C334.544 304.744 321.329 308.657 315.164 319.336C308.998 330.014 312.217 343.415 322.352 349.267C332.488 355.119 345.703 351.206 351.868 340.527Z" stroke="#0000FF" stroke-width="4"/>
<path opacity="0.5" d="M1287.1 540.729C1298.09 521.694 1290.61 496.802 1270.4 485.131C1250.19 473.461 1224.89 479.431 1213.9 498.467C1202.91 517.502 1210.39 542.395 1230.6 554.065C1250.81 565.736 1276.11 559.765 1287.1 540.729Z" stroke="#0000FF" stroke-width="4"/>
<path opacity="0.5" d="M146.362 498.485C154.446 484.482 150.093 466.833 136.638 459.065C123.184 451.297 105.723 456.351 97.6385 470.354C89.5539 484.357 93.907 502.006 107.362 509.774C120.816 517.542 138.277 512.488 146.362 498.485Z" stroke="#0000FF" stroke-width="4"/>
<path opacity="0.5" d="M1104.47 301.936C1106.39 298.621 1105.25 294.381 1101.94 292.466C1098.62 290.552 1094.38 291.688 1092.47 295.004C1090.55 298.32 1091.69 302.559 1095 304.474C1098.32 306.388 1102.56 305.252 1104.47 301.936Z" stroke="#008000" stroke-width="4"/>
<path opacity="0.5" d="M1055.74 450.555C1060.36 442.556 1058.26 432.697 1051.05 428.535C1043.84 424.374 1034.26 427.485 1029.64 435.485C1025.02 443.485 1027.12 453.343 1034.33 457.505C1041.53 461.667 1051.12 458.555 1055.74 450.555Z" stroke="#008000" stroke-width="4"/>
<path opacity="0.5" d="M699.474 379.936C701.388 376.621 700.252 372.381 696.936 370.466C693.621 368.552 689.381 369.688 687.466 373.004C685.552 376.32 686.688 380.559 690.004 382.474C693.32 384.388 697.559 383.252 699.474 379.936Z" stroke="#FF0000" stroke-width="4"/>
<path opacity="0.5" d="M841.934 450.333C846.317 442.742 843.827 433.098 836.371 428.794C828.916 424.489 819.319 427.154 814.936 434.746C810.553 442.337 813.044 451.981 820.499 456.285C827.955 460.59 837.551 457.925 841.934 450.333Z" stroke="#FF0000" stroke-width="4"/>
<path opacity="0.5" d="M925.474 566.936C927.388 563.621 926.252 559.381 922.936 557.466C919.621 555.552 915.381 556.688 913.466 560.004C911.552 563.32 912.688 567.559 916.004 569.474C919.32 571.388 923.559 570.252 925.474 566.936Z" stroke="#FF0000" stroke-width="4"/>
<path opacity="0.5" d="M1108 158C1108 139.775 1094.79 125 1078.5 125C1062.21 125 1049 139.775 1049 158C1049 176.225 1062.21 191 1078.5 191C1094.79 191 1108 176.225 1108 158Z" fill="#800080"/>
<path opacity="0.5" d="M934 296.5C934 286.835 927.06 279 918.5 279C909.94 279 903 286.835 903 296.5C903 306.165 909.94 314 918.5 314C927.06 314 934 306.165 934 296.5Z" fill="#FFA500"/>
<path opacity="0.5" d="M823 532.5C823 522.835 816.06 515 807.5 515C798.94 515 792 522.835 792 532.5C792 542.165 798.94 550 807.5 550C816.06 550 823 542.165 823 532.5Z" fill="#FFA500"/>
<path opacity="0.5" d="M812.5 533C818.299 533 823 537.701 823 543.5C823 549.299 818.299 554 812.5 554C806.701 554 802 549.299 802 543.5C802 537.701 806.701 533 812.5 533Z" stroke="#99FF66" stroke-opacity="0.8" stroke-width="4"/>
<path opacity="0.5" d="M789 347C789 342.029 784.971 338 780 338C775.029 338 771 342.029 771 347C771 351.971 775.029 356 780 356C784.971 356 789 351.971 789 347Z" fill="#800080"/>
<path d="M921 179C928.18 179 934 184.82 934 192C934 199.18 928.18 205 921 205C913.82 205 908 199.18 908 192C908 184.82 913.82 179 921 179Z" stroke="#99FF66" stroke-opacity="0.8" stroke-width="2"/>
<path d="M540 288C547.18 288 553 293.82 553 301C553 308.18 547.18 314 540 314C532.82 314 527 308.18 527 301C527 293.82 532.82 288 540 288Z" stroke="#FF0000" stroke-opacity="0.8" stroke-width="2"/>
</g>
<defs>
<clipPath id="clip0">
<rect width="1440" height="630" fill="white"/>
</clipPath>
</defs>
</svg>
