<svg width="1922" height="869" viewBox="0 0 1922 869" fill="none" xmlns="http://www.w3.org/2000/svg">
<g clip-path="url(#clip0)">
<path d="M1921.89 922.016L1.88891 923.984L1.0693 124.554L1921.07 122.586L1921.89 922.016Z" fill="url(#paint0_linear)" fill-opacity="0.65"/>
<path d="M1921.5 115.468L1898.7 111.711C1875.76 107.956 1829.49 100.445 1784.15 91.6807C1738.67 82.8234 1693.46 72.9487 1646.79 71.6506C1601.46 70.4451 1556.13 78.0495 1509.47 80.6254C1464.27 83.1047 1418.8 80.7893 1373.47 79.4888C1327.2 78.2842 1281.47 78.3311 1236.14 82.1576C1190.01 85.9839 1144.15 93.5889 1098.81 89.8564C1052.94 86.1244 1006.79 71.0547 961.451 63.5422C915.713 56.0311 869.444 56.0785 824.125 67.463C778.667 78.8466 733.49 101.569 686.824 105.396C641.498 109.221 596.152 94.1507 549.482 94.1986C504.282 94.2449 458.828 109.409 413.501 111.983C367.233 114.462 321.493 104.589 276.153 94.4788C230.002 84.3701 184.132 74.4962 138.785 68.1656C92.919 61.8347 46.7767 59.52 24.1153 58.1972L1.44398 56.9684L1.51373 124.994L24.3138 124.971C47.2437 124.948 93.5136 124.9 138.844 124.854C184.314 124.807 229.514 124.761 276.184 124.713C321.514 124.666 366.844 124.62 413.514 124.572C458.713 124.526 504.183 124.479 549.513 124.433C595.783 124.385 641.513 124.338 686.843 124.292C732.983 124.244 778.843 124.197 824.183 124.151C870.043 124.104 916.183 124.057 961.513 124.01C1007.25 123.963 1053.51 123.916 1098.85 123.869C1144.31 123.823 1189.51 123.776 1236.18 123.729C1281.51 123.682 1326.85 123.636 1373.51 123.588C1418.71 123.541 1464.18 123.495 1509.51 123.448C1555.78 123.401 1601.51 123.354 1646.85 123.308C1692.98 123.26 1738.85 123.213 1784.18 123.167C1830.05 123.12 1876.18 123.072 1898.85 123.049L1921.51 123.026L1921.5 115.468Z" fill="url(#paint1_linear)" fill-opacity="0.65"/>
<path d="M1.44494 868.984L1921.44 867.016L1920.79 230.747L0.79261 232.715L1.44494 868.984Z" fill="url(#paint2_linear)"/>
<path d="M1.05578 168.361L23.8515 164.155C46.7772 159.95 93.0385 151.539 138.359 141.743C183.818 131.844 229.007 120.82 275.676 119.282C321.004 117.85 366.343 126.167 413.016 128.917C458.218 131.562 503.686 128.902 549.014 127.365C595.283 125.932 641.013 125.886 686.347 130.022C732.491 134.156 778.36 142.472 823.695 138.244C869.551 134.015 915.674 117.241 960.995 108.83C1006.72 100.42 1052.99 100.373 1098.33 112.872C1143.81 125.37 1189.04 150.415 1235.71 154.549C1281.05 158.684 1326.36 141.91 1373.03 141.862C1418.23 141.816 1463.71 158.497 1509.05 161.248C1555.32 163.891 1601.04 152.868 1646.36 141.582C1692.48 130.297 1738.34 119.272 1783.67 112.169C1829.53 105.065 1875.66 102.404 1898.32 100.891L1920.99 99.4826L1921.12 229.5L1898.32 229.523C1875.39 229.547 1829.12 229.594 1783.79 229.641C1738.32 229.687 1693.12 229.734 1646.45 229.782C1601.12 229.828 1555.79 229.874 1509.12 229.922C1463.92 229.969 1418.45 230.015 1373.12 230.062C1326.85 230.109 1281.12 230.156 1235.79 230.203C1189.65 230.25 1143.79 230.297 1098.45 230.343C1052.59 230.39 1006.45 230.438 961.12 230.484C915.39 230.531 869.12 230.578 823.79 230.625C778.32 230.672 733.12 230.718 686.45 230.766C641.12 230.812 595.79 230.859 549.12 230.907C503.92 230.953 458.45 231 413.12 231.046C366.85 231.093 321.12 231.14 275.79 231.187C229.65 231.234 183.79 231.281 138.45 231.328C92.5904 231.375 46.4505 231.422 23.7905 231.445L1.12048 231.468L1.05578 168.361Z" fill="url(#paint3_linear)"/>
<path d="M376 359.227C253.945 359.352 155.102 458.622 155.227 580.953C155.353 703.284 254.399 802.351 376.454 802.226C498.509 802.101 597.352 702.831 597.227 580.5C597.101 458.169 498.055 359.101 376 359.227Z" fill="white" fill-opacity="0.03"/>
<path d="M1054.52 363.159C966.971 364.903 897.505 441.818 899.36 534.952C901.216 628.086 973.692 702.171 1061.24 700.427C1148.79 698.682 1218.25 621.768 1216.4 528.634C1214.54 435.5 1142.07 361.414 1054.52 363.159Z" fill="white" fill-opacity="0.03"/>
<path d="M1553.09 315.869C1570.18 251.836 1532.12 186.074 1468.09 168.987C1404.05 151.899 1338.29 189.957 1321.2 253.99C1304.12 318.024 1342.17 383.785 1406.21 400.873C1470.24 417.96 1536 379.903 1553.09 315.869Z" fill="white" fill-opacity="0.03"/>
<path d="M468.792 231.505C398.099 231.577 340.851 289.167 340.923 360.136C340.996 431.104 398.363 488.577 469.055 488.504C539.748 488.432 596.996 430.842 596.923 359.873C596.851 288.905 539.484 231.432 468.792 231.505Z" fill="white" fill-opacity="0.03"/>
<path d="M1186 545.131C1115.31 545.204 1058.06 602.794 1058.13 673.762C1058.2 744.731 1115.57 802.204 1186.26 802.131C1256.96 802.059 1314.2 744.468 1314.13 673.5C1314.06 602.531 1256.69 545.059 1186 545.131Z" fill="white" fill-opacity="0.03"/>
<path d="M1585.48 376.78C1595.38 339.694 1573.34 301.607 1536.25 291.71C1499.16 281.814 1461.08 303.855 1451.18 340.941C1441.28 378.027 1463.33 416.114 1500.41 426.011C1537.5 435.907 1575.58 413.866 1585.48 376.78Z" fill="white" fill-opacity="0.03"/>
</g>
<defs>
<linearGradient id="paint0_linear" x1="961.888" y1="923" x2="960.999" y2="55.5055" gradientUnits="userSpaceOnUse">
<stop stop-color="#003666"/>
<stop offset="1" stop-color="#034683"/>
</linearGradient>
<linearGradient id="paint1_linear" x1="962.332" y1="922.984" x2="961.443" y2="55.9842" gradientUnits="userSpaceOnUse">
<stop stop-color="#003666"/>
<stop offset="1" stop-color="#034683"/>
</linearGradient>
<linearGradient id="paint2_linear" x1="961.444" y1="868" x2="960.69" y2="131.982" gradientUnits="userSpaceOnUse">
<stop stop-color="#003666"/>
<stop offset="1" stop-color="#034683"/>
</linearGradient>
<linearGradient id="paint3_linear" x1="961.97" y1="1059.83" x2="960.987" y2="100.467" gradientUnits="userSpaceOnUse">
<stop stop-color="#003666"/>
<stop offset="1" stop-color="#034683"/>
</linearGradient>
<clipPath id="clip0">
<rect width="1920" height="867" fill="white" transform="translate(1921.44 867.016) rotate(179.941)"/>
</clipPath>
</defs>
</svg>
